<svg width="300" height="200" viewBox="0 0 300 200" xmlns="http://www.w3.org/2000/svg">
  <defs>
    <linearGradient id="bg" x1="0" y1="0" x2="1" y2="1">
      <stop offset="0%" stop-color="#edf7e8"/>
      <stop offset="100%" stop-color="#daf0d2"/>
    </linearGradient>
  </defs>
  <rect width="300" height="200" rx="14" fill="url(#bg)"/>
  <rect x="0" y="0" width="300" height="5" rx="3" fill="#96d97a"/>
  <rect x="0" y="195" width="300" height="5" rx="3" fill="#b8e88a"/>
  <ellipse cx="150" cy="82" rx="18" ry="30" fill="#b8e8a0" stroke="#78c860" stroke-width="1.5"/>
  <path d="M150 52 Q168 64 164 82" fill="none" stroke="#78c860" stroke-width="2" stroke-linecap="round"/>
  <path d="M150 52 Q132 64 136 82" fill="none" stroke="#90d070" stroke-width="1.5" stroke-linecap="round"/>
  <line x1="150" y1="52" x2="150" y2="112" stroke="#68b850" stroke-width="2" stroke-linecap="round"/>
  <ellipse cx="126" cy="75" rx="14" ry="8" fill="#c0e890" stroke="#78c860" stroke-width="1" transform="rotate(-30 126 75)"/>
  <ellipse cx="174" cy="75" rx="14" ry="8" fill="#c0e890" stroke="#78c860" stroke-width="1" transform="rotate(30 174 75)"/>
  <text x="150" y="140" text-anchor="middle" font-family="Helvetica Neue, Arial, sans-serif" font-size="14" font-weight="700" fill="#3a7828" letter-spacing="1">HERBAL PRODUCTS</text>
  <text x="150" y="158" text-anchor="middle" font-family="Helvetica Neue, Arial, sans-serif" font-size="10" fill="#6aab48" letter-spacing="2">NATURAL HERBS</text>
  <rect x="112" y="168" width="76" height="12" rx="6" fill="#d8f0c8"/>
  <text x="150" y="178" text-anchor="middle" font-family="Helvetica Neue, Arial, sans-serif" font-size="8" font-weight="600" fill="#3a7828" letter-spacing="1">ORGANIC</text>
</svg>
