<svg width="300" height="200" viewBox="0 0 300 200" xmlns="http://www.w3.org/2000/svg">
  <defs>
    <linearGradient id="bg" x1="0" y1="0" x2="1" y2="1">
      <stop offset="0%" stop-color="#e8f4fc"/>
      <stop offset="100%" stop-color="#d8eef8"/>
    </linearGradient>
  </defs>
  <rect width="300" height="200" rx="14" fill="url(#bg)"/>
  <rect x="0" y="0" width="300" height="5" rx="3" fill="#78c8f0"/>
  <rect x="0" y="195" width="300" height="5" rx="3" fill="#a8ddf8"/>
  <ellipse cx="130" cy="85" rx="22" ry="30" fill="#b8e0f8" stroke="#70b8e8" stroke-width="1.5"/>
  <ellipse cx="170" cy="85" rx="22" ry="30" fill="#b8e0f8" stroke="#70b8e8" stroke-width="1.5"/>
  <line x1="150" y1="55" x2="150" y2="75" stroke="#50a0d8" stroke-width="2.5" stroke-linecap="round"/>
  <path d="M130 68 Q150 62 170 68" fill="none" stroke="#50a0d8" stroke-width="1.8" stroke-linecap="round"/>
  <path d="M116 80 Q130 72 144 80" fill="none" stroke="#80c0ec" stroke-width="1.5" stroke-linecap="round"/>
  <path d="M156 80 Q170 72 184 80" fill="none" stroke="#80c0ec" stroke-width="1.5" stroke-linecap="round"/>
  <text x="150" y="136" text-anchor="middle" font-family="Helvetica Neue, Arial, sans-serif" font-size="13" font-weight="700" fill="#1858a0" letter-spacing="1">RESPIRATORY CARE</text>
  <text x="150" y="154" text-anchor="middle" font-family="Helvetica Neue, Arial, sans-serif" font-size="10" fill="#5090c8" letter-spacing="2">LUNGS &amp; BREATHING</text>
  <rect x="113" y="164" width="74" height="12" rx="6" fill="#c8e8f8"/>
  <text x="150" y="174" text-anchor="middle" font-family="Helvetica Neue, Arial, sans-serif" font-size="8" font-weight="600" fill="#1858a0" letter-spacing="1">BREATH</text>
</svg>
