<svg width="300" height="200" viewBox="0 0 300 200" xmlns="http://www.w3.org/2000/svg">
  <defs>
    <linearGradient id="bg" x1="0" y1="0" x2="1" y2="1">
      <stop offset="0%" stop-color="#f8f0fc"/>
      <stop offset="100%" stop-color="#f0e2f8"/>
    </linearGradient>
  </defs>
  <rect width="300" height="200" rx="14" fill="url(#bg)"/>
  <rect x="0" y="0" width="300" height="5" rx="3" fill="#d8a8f0"/>
  <rect x="0" y="195" width="300" height="5" rx="3" fill="#e8c8f8"/>
  <path d="M150 46 Q162 52 168 62 Q178 76 172 92 Q168 108 150 114 Q132 108 128 92 Q122 76 132 62 Q138 52 150 46Z" fill="#edd8fc" stroke="#c8a0e8" stroke-width="1.5"/>
  <circle cx="150" cy="82" r="14" fill="#d8b8f8" stroke="#b888e0" stroke-width="1.2"/>
  <circle cx="150" cy="82" r="6" fill="#c090e8"/>
  <path d="M138 64 Q150 56 162 64" fill="none" stroke="#c090e0" stroke-width="1.5" stroke-linecap="round"/>
  <path d="M128 96 Q138 108 150 112" fill="none" stroke="#d8b0f0" stroke-width="1.2" stroke-linecap="round"/>
  <path d="M172 96 Q162 108 150 112" fill="none" stroke="#d8b0f0" stroke-width="1.2" stroke-linecap="round"/>
  <text x="150" y="142" text-anchor="middle" font-family="Helvetica Neue, Arial, sans-serif" font-size="14" font-weight="700" fill="#602898" letter-spacing="1">HAIR &amp; SKIN CARE</text>
  <text x="150" y="160" text-anchor="middle" font-family="Helvetica Neue, Arial, sans-serif" font-size="10" fill="#9858c8" letter-spacing="2">BEAUTY &amp; GLOW</text>
  <rect x="113" y="170" width="74" height="12" rx="6" fill="#ead0fc"/>
  <text x="150" y="180" text-anchor="middle" font-family="Helvetica Neue, Arial, sans-serif" font-size="8" font-weight="600" fill="#602898" letter-spacing="1">BEAUTY</text>
</svg>
