<svg width="300" height="200" viewBox="0 0 300 200" xmlns="http://www.w3.org/2000/svg">
  <defs>
    <linearGradient id="bg" x1="0" y1="0" x2="1" y2="1">
      <stop offset="0%" stop-color="#eaf2fc"/>
      <stop offset="100%" stop-color="#d8ecf8"/>
    </linearGradient>
  </defs>
  <rect width="300" height="200" rx="14" fill="url(#bg)"/>
  <rect x="0" y="0" width="300" height="5" rx="3" fill="#90c0f0"/>
  <rect x="0" y="195" width="300" height="5" rx="3" fill="#b0d0f8"/>
  <polygon points="150,46 162,70 188,70 168,86 176,110 150,94 124,110 132,86 112,70 138,70" fill="#b8d8f8" stroke="#70a8e0" stroke-width="1.5"/>
  <polygon points="150,58 158,72 174,72 162,82 166,96 150,86 134,96 138,82 126,72 142,72" fill="#80bce8"/>
  <text x="150" y="140" text-anchor="middle" font-family="Helvetica Neue, Arial, sans-serif" font-size="15" font-weight="700" fill="#2a5a9a" letter-spacing="1">NEW ARRIVALS</text>
  <text x="150" y="158" text-anchor="middle" font-family="Helvetica Neue, Arial, sans-serif" font-size="10" fill="#6090c8" letter-spacing="2">JUST LAUNCHED</text>
  <rect x="120" y="168" width="60" height="12" rx="6" fill="#d0e8f8"/>
  <text x="150" y="178" text-anchor="middle" font-family="Helvetica Neue, Arial, sans-serif" font-size="8" font-weight="600" fill="#2a5a9a" letter-spacing="1">NEW</text>
</svg>
