<svg width="300" height="200" viewBox="0 0 300 200" xmlns="http://www.w3.org/2000/svg">
  <defs>
    <linearGradient id="bg" x1="0" y1="0" x2="1" y2="1">
      <stop offset="0%" stop-color="#f3eeff"/>
      <stop offset="100%" stop-color="#e8e0fc"/>
    </linearGradient>
  </defs>
  <rect width="300" height="200" rx="14" fill="url(#bg)"/>
  <rect x="0" y="0" width="300" height="5" rx="3" fill="#c0a8f8"/>
  <rect x="0" y="195" width="300" height="5" rx="3" fill="#d8c8fc"/>
  <circle cx="150" cy="82" r="38" fill="#ddd0fc" stroke="#b0a0e8" stroke-width="1.5"/>
  <path d="M122 82 Q122 58 150 58 Q178 58 178 82 Q178 106 150 106 Q122 106 122 82Z" fill="none" stroke="#9888d8" stroke-width="1.8"/>
  <circle cx="150" cy="82" r="8" fill="#b0a0e8"/>
  <line x1="150" y1="50" x2="150" y2="58" stroke="#9888d8" stroke-width="2" stroke-linecap="round"/>
  <line x1="150" y1="106" x2="150" y2="114" stroke="#9888d8" stroke-width="2" stroke-linecap="round"/>
  <line x1="118" y1="82" x2="126" y2="82" stroke="#9888d8" stroke-width="2" stroke-linecap="round"/>
  <line x1="174" y1="82" x2="182" y2="82" stroke="#9888d8" stroke-width="2" stroke-linecap="round"/>
  <text x="150" y="142" text-anchor="middle" font-family="Helvetica Neue, Arial, sans-serif" font-size="15" font-weight="700" fill="#5030a8" letter-spacing="1">DIABETIC CARE</text>
  <text x="150" y="160" text-anchor="middle" font-family="Helvetica Neue, Arial, sans-serif" font-size="10" fill="#8868c8" letter-spacing="2">BLOOD SUGAR SUPPORT</text>
  <rect x="108" y="170" width="84" height="12" rx="6" fill="#e8d8fc"/>
  <text x="150" y="180" text-anchor="middle" font-family="Helvetica Neue, Arial, sans-serif" font-size="8" font-weight="600" fill="#5030a8" letter-spacing="1">DIABETES</text>
</svg>
