<svg width="300" height="200" viewBox="0 0 300 200" xmlns="http://www.w3.org/2000/svg">
  <defs>
    <linearGradient id="bg" x1="0" y1="0" x2="1" y2="1">
      <stop offset="0%" stop-color="#fdf2ec"/>
      <stop offset="100%" stop-color="#fae4d4"/>
    </linearGradient>
  </defs>
  <rect width="300" height="200" rx="14" fill="url(#bg)"/>
  <rect x="0" y="0" width="300" height="5" rx="3" fill="#f0a888"/>
  <rect x="0" y="195" width="300" height="5" rx="3" fill="#f8c8a8"/>
  <ellipse cx="136" cy="84" rx="22" ry="28" fill="#fcd8c0" stroke="#e8a880" stroke-width="1.5" transform="rotate(-15 136 84)"/>
  <ellipse cx="166" cy="80" rx="18" ry="22" fill="#f8c8b0" stroke="#e09870" stroke-width="1.5" transform="rotate(10 166 80)"/>
  <circle cx="150" cy="82" r="8" fill="#ffffff" stroke="#d88050" stroke-width="1.5"/>
  <path d="M128 100 Q150 110 172 100" fill="none" stroke="#d88050" stroke-width="1.8" stroke-linecap="round"/>
  <line x1="166" y1="68" x2="174" y2="52" stroke="#e0a070" stroke-width="2" stroke-linecap="round"/>
  <circle cx="174" cy="50" r="4" fill="#f0b888" stroke="#d88050" stroke-width="1"/>
  <text x="150" y="136" text-anchor="middle" font-family="Helvetica Neue, Arial, sans-serif" font-size="13" font-weight="700" fill="#903820" letter-spacing="1">JOINT &amp; PAIN RELIEF</text>
  <text x="150" y="154" text-anchor="middle" font-family="Helvetica Neue, Arial, sans-serif" font-size="10" fill="#c06840" letter-spacing="2">COMFORT &amp; MOBILITY</text>
  <rect x="115" y="164" width="70" height="12" rx="6" fill="#fce0c8"/>
  <text x="150" y="174" text-anchor="middle" font-family="Helvetica Neue, Arial, sans-serif" font-size="8" font-weight="600" fill="#903820" letter-spacing="1">RELIEF</text>
</svg>
